# xmcd
# Copyright (C) 1995-1998 Ti Kan
#
# Track frame offsets:
#       150
#       83280
#       159592
#       234407
#
# Disc length: 3201 seconds
#
# Revision: 0
# Processed by: cddbd v1.5.2PL0 Copyright (c) Steve Scherf et al.
# Submitted via: CD-Import v1.0
#
DISCID=1c0c7f04
DTITLE=Michael  Ende - Momo T1
DYEAR=75
DGENRE=
TTITLE0=Momo 1.1
TTITLE1=Momo 1.2
TTITLE2=Momo 1.3
TTITLE3=Anmodi Momo 1
EXTD=
EXTT0=
EXTT1=
EXTT2=
EXTT3=
PLAYORDER=
